<svg width="38" height="54" viewBox="0 0 38 54" fill="none" xmlns="http://www.w3.org/2000/svg">
<path d="M34 53.25H4C3.00574 53.249 2.05249 52.8536 1.34945 52.1506C0.6464 51.4475 0.250993 50.4943 0.25 49.5V4.5C0.250993 3.50574 0.6464 2.55249 1.34945 1.84945C2.05249 1.1464 3.00574 0.750993 4 0.75H34C34.9943 0.750993 35.9475 1.1464 36.6506 1.84945C37.3536 2.55249 37.749 3.50574 37.75 4.5V35.6587L28.375 30.9713L19 35.6587V4.5H4V49.5H34V42H37.75V49.5C37.7485 50.4941 37.3529 51.4471 36.65 52.15C35.9471 52.8529 34.9941 53.2485 34 53.25ZM28.375 26.7787L34 29.5912V4.5H22.75V29.5912L28.375 26.7787Z" fill="black"/>
</svg>
