<svg width="53" height="54" viewBox="0 0 53 54" fill="none" xmlns="http://www.w3.org/2000/svg">
<path d="M44.6496 17.0001L46.6246 12.6251L50.9996 10.6501C51.2178 10.5506 51.4029 10.3905 51.5326 10.1888C51.6624 9.98713 51.7314 9.75237 51.7314 9.51255C51.7314 9.27273 51.6624 9.03797 51.5326 8.83628C51.4029 8.63459 51.2178 8.47448 50.9996 8.37505L46.6246 6.40005L44.6496 2.00005C44.5502 1.78181 44.3901 1.59679 44.1884 1.46704C43.9867 1.3373 43.7519 1.26831 43.5121 1.26831C43.2723 1.26831 43.0375 1.3373 42.8358 1.46704C42.6342 1.59679 42.474 1.78181 42.3746 2.00005L40.3996 6.37505L35.9996 8.35005C35.7814 8.44948 35.5964 8.60959 35.4666 8.81128C35.3369 9.01297 35.2679 9.24773 35.2679 9.48755C35.2679 9.72737 35.3369 9.96213 35.4666 10.1638C35.5964 10.3655 35.7814 10.5256 35.9996 10.6251L40.3746 12.6L42.3496 17.0001C42.7996 17.9751 44.1996 17.9751 44.6496 17.0001ZM24.7496 20.7501L20.7746 12.0001C19.8996 10.0501 17.0996 10.0501 16.2246 12.0001L12.2496 20.7501L3.49961 24.7251C1.54961 25.6251 1.54961 28.4001 3.49961 29.2751L12.2496 33.2501L16.2246 42.0001C17.1246 43.9501 19.8996 43.9501 20.7746 42.0001L24.7496 33.2501L33.4996 29.2751C35.4496 28.3751 35.4496 25.6001 33.4996 24.7251L24.7496 20.7501ZM42.3496 37.0001L40.3746 41.3751L35.9996 43.3501C35.7814 43.4495 35.5964 43.6096 35.4666 43.8113C35.3369 44.013 35.2679 44.2477 35.2679 44.4876C35.2679 44.7274 35.3369 44.9621 35.4666 45.1638C35.5964 45.3655 35.7814 45.5256 35.9996 45.6251L40.3746 47.6L42.3496 52.0001C42.449 52.2183 42.6092 52.4033 42.8108 52.5331C43.0125 52.6628 43.2473 52.7318 43.4871 52.7318C43.7269 52.7318 43.9617 52.6628 44.1634 52.5331C44.3651 52.4033 44.5252 52.2183 44.6246 52.0001L46.5996 47.6251L50.9996 45.65C51.2178 45.5506 51.4029 45.3905 51.5326 45.1888C51.6624 44.9871 51.7314 44.7524 51.7314 44.5125C51.7314 44.2727 51.6624 44.038 51.5326 43.8363C51.4029 43.6346 51.2178 43.4745 50.9996 43.375L46.6246 41.4001L44.6496 37.0001C44.5472 36.7815 44.3846 36.5967 44.181 36.4672C43.9773 36.3377 43.741 36.2689 43.4996 36.2689C43.2583 36.2689 43.0219 36.3377 42.8182 36.4672C42.6146 36.5967 42.452 36.7815 42.3496 37.0001V37.0001Z" stroke="black" stroke-width="2.5"/>
</svg>
