<svg width="24" height="24" viewBox="0 0 24 24" fill="none" xmlns="http://www.w3.org/2000/svg">
<path d="M7.04565 6.8833H21.4616L17.8576 14.8121H8.48725L7.04565 6.8833Z" stroke="#666666" stroke-width="1.5" stroke-linecap="round" stroke-linejoin="round"/>
<path d="M8.48868 14.812H7.26333C6.68669 14.812 6.18213 15.3166 6.18213 15.8932C6.18213 16.4698 6.68669 16.9744 7.26333 16.9744H20.7422" stroke="#666666" stroke-width="1.5" stroke-linecap="round" stroke-linejoin="round"/>
<path d="M3.4416 6.88319C4.23777 6.88319 4.88319 6.23777 4.88319 5.4416C4.88319 4.64542 4.23777 4 3.4416 4C2.64542 4 2 4.64542 2 5.4416C2 6.23777 2.64542 6.88319 3.4416 6.88319Z" stroke="#666666" stroke-width="1.5" stroke-linecap="round" stroke-linejoin="round"/>
<path d="M6.32538 20.5785C7.12156 20.5785 7.76698 19.9331 7.76698 19.1369C7.76698 18.3407 7.12156 17.6953 6.32538 17.6953C5.52921 17.6953 4.88379 18.3407 4.88379 19.1369C4.88379 19.9331 5.52921 20.5785 6.32538 20.5785Z" stroke="#666666" stroke-width="1.5" stroke-linecap="round" stroke-linejoin="round"/>
<path d="M19.299 20.5785C20.0952 20.5785 20.7406 19.9331 20.7406 19.1369C20.7406 18.3407 20.0952 17.6953 19.299 17.6953C18.5028 17.6953 17.8574 18.3407 17.8574 19.1369C17.8574 19.9331 18.5028 20.5785 19.299 20.5785Z" stroke="#666666" stroke-width="1.5" stroke-linecap="round" stroke-linejoin="round"/>
<path d="M4.88379 5.44189C6.32538 5.44189 7.04618 5.94645 7.04618 6.88349" stroke="#666666" stroke-width="1.5" stroke-linecap="round" stroke-linejoin="round"/>
<path d="M7.76587 9.7666H20.0194" stroke="#666666" stroke-width="1.5" stroke-linecap="round" stroke-linejoin="round"/>
</svg>
