<svg width="34" height="24" viewBox="0 0 34 24" fill="none" xmlns="http://www.w3.org/2000/svg">
<path d="M27.5 21H6.5V3H27.5V21ZM30.5 0H3.5C1.835 0 0.5 1.335 0.5 3V21C0.5 21.7956 0.816071 22.5587 1.37868 23.1213C1.94129 23.6839 2.70435 24 3.5 24H30.5C31.2956 24 32.0587 23.6839 32.6213 23.1213C33.1839 22.5587 33.5 21.7956 33.5 21V3C33.5 2.20435 33.1839 1.44129 32.6213 0.87868C32.0587 0.31607 31.2956 0 30.5 0ZM9.5 6H18.5V13.5H9.5V6ZM20 6H24.5V9H20V6ZM24.5 10.5V18H20V10.5H24.5ZM9.5 15H18.5V18H9.5V15Z" fill="url(#paint0_linear)"/>
<defs>
<linearGradient id="paint0_linear" x1="17" y1="0" x2="17" y2="24" gradientUnits="userSpaceOnUse">
<stop stop-color="#00A1EE"/>
<stop offset="0.645833" stop-color="#0D64C0"/>
<stop offset="1" stop-color="#1B4088"/>
</linearGradient>
</defs>
</svg>
