<svg width="28" height="32" viewBox="0 0 28 32" fill="none" xmlns="http://www.w3.org/2000/svg">
<path d="M3.8002 0.599976C2.84542 0.599976 1.92974 0.97926 1.25461 1.65439C0.57948 2.32952 0.200195 3.2452 0.200195 4.19998V25.8C0.200195 26.7548 0.57948 27.6704 1.25461 28.3456C1.92974 29.0207 2.84542 29.4 3.8002 29.4H11.4628C11.0043 28.8447 10.6078 28.2412 10.2802 27.6H3.8002C3.32281 27.6 2.86497 27.4103 2.5274 27.0728C2.18984 26.7352 2.0002 26.2774 2.0002 25.8H9.57279C9.09139 24.1043 9.07145 22.3108 9.51504 20.6048C9.95863 18.8989 10.8497 17.3423 12.0961 16.0959C13.3425 14.8494 14.8991 13.9584 16.6051 13.5148C18.311 13.0712 20.1045 13.0912 21.8002 13.5726V4.19998C21.8002 3.2452 21.4209 2.32952 20.7458 1.65439C20.0706 0.97926 19.155 0.599976 18.2002 0.599976H3.8002ZM5.1502 5.09998H16.8502C17.2082 5.09998 17.5516 5.24221 17.8048 5.49538C18.058 5.74855 18.2002 6.09193 18.2002 6.44998C18.2002 6.80802 18.058 7.1514 17.8048 7.40457C17.5516 7.65774 17.2082 7.79997 16.8502 7.79997H5.1502C4.79215 7.79997 4.44878 7.65774 4.1956 7.40457C3.94243 7.1514 3.8002 6.80802 3.8002 6.44998C3.8002 6.09193 3.94243 5.74855 4.1956 5.49538C4.44878 5.24221 4.79215 5.09998 5.1502 5.09998Z" fill="url(#paint0_linear)"/>
<path d="M27.2 23.1C27.2 25.2483 26.3466 27.3085 24.8276 28.8276C23.3085 30.3466 21.2483 31.2 19.1 31.2C16.9517 31.2 14.8915 30.3466 13.3724 28.8276C11.8534 27.3085 11 25.2483 11 23.1C11 20.9517 11.8534 18.8915 13.3724 17.3724C14.8915 15.8534 16.9517 15 19.1 15C21.2483 15 23.3085 15.8534 24.8276 17.3724C26.3466 18.8915 27.2 20.9517 27.2 23.1ZM18.236 19.5612C18.1193 19.481 17.9837 19.4327 17.8425 19.4211C17.7014 19.4094 17.5597 19.4347 17.4314 19.4946C17.3267 19.5407 17.2319 19.6067 17.1524 19.689C16.9847 19.8608 16.891 20.0915 16.8914 20.3316V25.8666C16.8903 25.9859 16.9128 26.1043 16.9576 26.2149C17.0024 26.3254 17.0686 26.4261 17.1524 26.511C17.2346 26.5927 17.3302 26.6597 17.435 26.709C17.6176 26.7927 17.8248 26.8055 18.0164 26.745C18.0994 26.7177 18.1781 26.6789 18.2504 26.6298L22.3832 23.8092C22.5089 23.7264 22.6102 23.6114 22.6766 23.4762C22.745 23.34 22.7801 23.1896 22.7792 23.0373C22.7783 22.8849 22.7413 22.7349 22.6712 22.5996C22.6008 22.4664 22.4973 22.3536 22.3706 22.272L18.236 19.5612Z" fill="url(#paint1_linear)"/>
<defs>
<linearGradient id="paint0_linear" x1="11.0002" y1="0.599976" x2="11.0002" y2="29.4" gradientUnits="userSpaceOnUse">
<stop stop-color="#00A1EE"/>
<stop offset="0.645833" stop-color="#0D64C0"/>
<stop offset="1" stop-color="#1B4088"/>
</linearGradient>
<linearGradient id="paint1_linear" x1="19.1" y1="15" x2="19.1" y2="31.2" gradientUnits="userSpaceOnUse">
<stop stop-color="#00A1EE"/>
<stop offset="0.645833" stop-color="#0D64C0"/>
<stop offset="1" stop-color="#1B4088"/>
</linearGradient>
</defs>
</svg>
