<svg width="17" height="17" viewBox="0 0 17 17" fill="none" xmlns="http://www.w3.org/2000/svg">
<path d="M16.2 8.1C16.2 10.2483 15.3466 12.3085 13.8276 13.8276C12.3085 15.3466 10.2483 16.2 8.1 16.2C5.95175 16.2 3.89148 15.3466 2.37244 13.8276C0.853391 12.3085 0 10.2483 0 8.1C0 5.95175 0.853391 3.89148 2.37244 2.37244C3.89148 0.853391 5.95175 0 8.1 0C10.2483 0 12.3085 0.853391 13.8276 2.37244C15.3466 3.89148 16.2 5.95175 16.2 8.1ZM7.236 4.5612C7.11928 4.48105 6.98366 4.43274 6.84254 4.42106C6.70143 4.40938 6.55971 4.43473 6.4314 4.4946C6.32667 4.54069 6.23191 4.60672 6.1524 4.689C5.98472 4.86083 5.89102 5.09151 5.8914 5.3316V10.8666C5.8903 10.9859 5.91279 11.1043 5.95758 11.2149C6.00237 11.3254 6.06858 11.4261 6.1524 11.511C6.23457 11.5927 6.33016 11.6597 6.435 11.709C6.61763 11.7927 6.82484 11.8055 7.0164 11.745C7.09938 11.7177 7.17813 11.6789 7.2504 11.6298L11.3832 8.8092C11.5089 8.72636 11.6102 8.61138 11.6766 8.4762C11.745 8.34004 11.7801 8.18962 11.7792 8.03725C11.7783 7.88489 11.7413 7.73491 11.6712 7.5996C11.6008 7.46638 11.4973 7.35355 11.3706 7.272L7.236 4.5612Z" fill="url(#paint0_linear)"/>
<defs>
<linearGradient id="paint0_linear" x1="8.1" y1="0" x2="8.1" y2="16.2" gradientUnits="userSpaceOnUse">
<stop stop-color="#00A1EE"/>
<stop offset="0.645833" stop-color="#0D64C0"/>
<stop offset="1" stop-color="#1B4088"/>
</linearGradient>
</defs>
</svg>
